HIERARCHY
ROOT Hips
{
  OFFSET -14.172 28.653 -258.703
  CHANNELS 6 Xposition Yposition Zposition Zrotation Xrotation Yrotation
  JOINT LeftUpLeg
  {
    OFFSET 6.784 -6.615 2.363
    CHANNELS 6 Xposition Yposition Zposition Zrotation Xrotation Yrotation
    JOINT LeftLeg
    {
      OFFSET -0.000 -52.923 0.000
      CHANNELS 6 Xposition Yposition Zposition Zrotation Xrotation Yrotation
      JOINT LeftFoot
      {
        OFFSET -0.000 -38.893 -0.000
        CHANNELS 6 Xposition Yposition Zposition Zrotation Xrotation Yrotation
        End Site
        {
          OFFSET 0.000 -7.626 4.403
        }
      }
    }
  }
  JOINT RightUpLeg
  {
    OFFSET -6.583 -6.820 2.267
    CHANNELS 6 Xposition Yposition Zposition Zrotation Xrotation Yrotation
    JOINT RightLeg
    {
      OFFSET 0.000 -52.550 0.000
      CHANNELS 6 Xposition Yposition Zposition Zrotation Xrotation Yrotation
      JOINT RightFoot
      {
        OFFSET -0.000 -39.191 -0.000
        CHANNELS 6 Xposition Yposition Zposition Zrotation Xrotation Yrotation
        End Site
        {
          OFFSET 0.000 -8.105 4.679
        }
      }
    }
  }
  JOINT Spine
  {
    OFFSET 0.000 5.433 -5.433
    CHANNELS 6 Xposition Yposition Zposition Zrotation Xrotation Yrotation
    JOINT LeftShoulder
    {
      OFFSET -0.000 32.888 0.000
      CHANNELS 6 Xposition Yposition Zposition Zrotation Xrotation Yrotation
      JOINT LeftArm
      {
        OFFSET 17.167 0.000 -0.000
        CHANNELS 6 Xposition Yposition Zposition Zrotation Xrotation Yrotation
        JOINT LeftForeArm
        {
          OFFSET 21.854 0.000 0.000
          CHANNELS 6 Xposition Yposition Zposition Zrotation Xrotation Yrotation
          JOINT LeftHand
          {
            OFFSET 24.477 -0.000 -0.000
            CHANNELS 6 Xposition Yposition Zposition Zrotation Xrotation Yrotation
            JOINT LeftHandThumb1
            {
            OFFSET 4.970 -0.620 3.390
            CHANNELS 6 Xposition Yposition Zposition Zrotation Xrotation Yrotation
              JOINT LeftHandThumb2
              {
              OFFSET 2.150 -0.000 0.000
              CHANNELS 6 Xposition Yposition Zposition Zrotation Xrotation Yrotation
                JOINT LeftHandThumb3
                {
                OFFSET 2.200 -0.000 0.000
                CHANNELS 6 Xposition Yposition Zposition Zrotation Xrotation Yrotation
                  JOINT LeftHandThumb4
                  {
                  OFFSET 1.700 -0.000 0.000
                  CHANNELS 6 Xposition Yposition Zposition Zrotation Xrotation Yrotation
                  }
                }
              }
            }
            JOINT LeftHandIndex1
            {
            OFFSET 8.730 0.680 2.070
            CHANNELS 6 Xposition Yposition Zposition Zrotation Xrotation Yrotation
              JOINT LeftHandIndex2
              {
              OFFSET 2.670 -0.000 0.000
              CHANNELS 6 Xposition Yposition Zposition Zrotation Xrotation Yrotation
                JOINT LeftHandIndex3
                {
                OFFSET 2.130 -0.000 0.000
                CHANNELS 6 Xposition Yposition Zposition Zrotation Xrotation Yrotation
                  JOINT LeftHandIndex4
                  {
                  OFFSET 1.800 -0.000 0.000
                  CHANNELS 6 Xposition Yposition Zposition Zrotation Xrotation Yrotation
                  }
                }
              }
            }
            JOINT LeftHandMiddle1
            {
            OFFSET 9.220 0.670 0.550
            CHANNELS 6 Xposition Yposition Zposition Zrotation Xrotation Yrotation
              JOINT LeftHandMiddle2
              {
              OFFSET 2.660 -0.000 0.000
              CHANNELS 6 Xposition Yposition Zposition Zrotation Xrotation Yrotation
                JOINT LeftHandMiddle3
                {
                OFFSET 2.280 -0.000 0.000
                CHANNELS 6 Xposition Yposition Zposition Zrotation Xrotation Yrotation
                  JOINT LeftHandMiddle4
                  {
                  OFFSET 1.500 -0.000 0.000
                  CHANNELS 6 Xposition Yposition Zposition Zrotation Xrotation Yrotation
                  }
                }
              }
            }
            JOINT LeftHandRing1
            {
            OFFSET 9.250 0.670 -1.130
            CHANNELS 6 Xposition Yposition Zposition Zrotation Xrotation Yrotation
              JOINT LeftHandRing2
              {
              OFFSET 2.470 -0.000 0.000
              CHANNELS 6 Xposition Yposition Zposition Zrotation Xrotation Yrotation
                JOINT LeftHandRing3
                {
                OFFSET 2.210 -0.000 0.000
                CHANNELS 6 Xposition Yposition Zposition Zrotation Xrotation Yrotation
                  JOINT LeftHandRing4
                  {
                  OFFSET 1.800 -0.000 0.000
                  CHANNELS 6 Xposition Yposition Zposition Zrotation Xrotation Yrotation
                  }
                }
              }
            }
            JOINT LeftHandPinky1
            {
            OFFSET 9.350 0.660 -2.720
            CHANNELS 6 Xposition Yposition Zposition Zrotation Xrotation Yrotation
              JOINT LeftHandPinky2
              {
              OFFSET 1.630 -0.000 0.000
              CHANNELS 6 Xposition Yposition Zposition Zrotation Xrotation Yrotation
                JOINT LeftHandPinky3
                {
                OFFSET 1.710 -0.000 0.000
                CHANNELS 6 Xposition Yposition Zposition Zrotation Xrotation Yrotation
                  JOINT LeftHandPinky4
                  {
                  OFFSET 1.800 -0.000 0.000
                  CHANNELS 6 Xposition Yposition Zposition Zrotation Xrotation Yrotation
                  }
                }
              }
            }
          }
        }
      }
    }
    JOINT RightShoulder
    {
      OFFSET -0.000 32.888 0.000
      CHANNELS 6 Xposition Yposition Zposition Zrotation Xrotation Yrotation
      JOINT RightArm
      {
        OFFSET -18.137 0.000 -0.000
        CHANNELS 6 Xposition Yposition Zposition Zrotation Xrotation Yrotation
        JOINT RightForeArm
        {
          OFFSET -20.799 0.000 0.000
          CHANNELS 6 Xposition Yposition Zposition Zrotation Xrotation Yrotation
          JOINT RightHand
          {
            OFFSET -23.717 0.000 -0.000
            CHANNELS 6 Xposition Yposition Zposition Zrotation Xrotation Yrotation
            JOINT RightHandThumb1
            {
            OFFSET -4.970 -0.620 3.390
            CHANNELS 6 Xposition Yposition Zposition Zrotation Xrotation Yrotation
              JOINT RightHandThumb2
              {
              OFFSET -2.150 0.000 0.000
              CHANNELS 6 Xposition Yposition Zposition Zrotation Xrotation Yrotation
                JOINT RightHandThumb3
                {
                OFFSET -2.200 0.000 0.000
                CHANNELS 6 Xposition Yposition Zposition Zrotation Xrotation Yrotation
                  JOINT RightHandThumb4
                  {
                  OFFSET -1.700 0.000 0.000
                  CHANNELS 6 Xposition Yposition Zposition Zrotation Xrotation Yrotation
                  }
                }
              }
            }
            JOINT RightHandIndex1
            {
            OFFSET -8.730 0.680 2.070
            CHANNELS 6 Xposition Yposition Zposition Zrotation Xrotation Yrotation
              JOINT RightHandIndex2
              {
              OFFSET -2.670 0.000 0.000
              CHANNELS 6 Xposition Yposition Zposition Zrotation Xrotation Yrotation
                JOINT RightHandIndex3
                {
                OFFSET -2.130 0.000 0.000
                CHANNELS 6 Xposition Yposition Zposition Zrotation Xrotation Yrotation
                  JOINT RightHandIndex4
                  {
                  OFFSET -1.800 0.000 0.000
                  CHANNELS 6 Xposition Yposition Zposition Zrotation Xrotation Yrotation
                  }
                }
              }
            }
            JOINT RightHandMiddle1
            {
            OFFSET -9.220 0.670 0.550
            CHANNELS 6 Xposition Yposition Zposition Zrotation Xrotation Yrotation
              JOINT RightHandMiddle2
              {
              OFFSET -2.660 0.000 0.000
              CHANNELS 6 Xposition Yposition Zposition Zrotation Xrotation Yrotation
                JOINT RightHandMiddle3
                {
                OFFSET -2.280 0.000 0.000
                CHANNELS 6 Xposition Yposition Zposition Zrotation Xrotation Yrotation
                  JOINT RightHandMiddle4
                  {
                  OFFSET -1.500 0.000 0.000
                  CHANNELS 6 Xposition Yposition Zposition Zrotation Xrotation Yrotation
                  }
                }
              }
            }
            JOINT RightHandRing1
            {
            OFFSET -9.250 0.670 -1.130
            CHANNELS 6 Xposition Yposition Zposition Zrotation Xrotation Yrotation
              JOINT RightHandRing2
              {
              OFFSET -2.470 0.000 0.000
              CHANNELS 6 Xposition Yposition Zposition Zrotation Xrotation Yrotation
                JOINT RightHandRing3
                {
                OFFSET -2.210 0.000 0.000
                CHANNELS 6 Xposition Yposition Zposition Zrotation Xrotation Yrotation
                  JOINT RightHandRing4
                  {
                  OFFSET -1.800 0.000 0.000
                  CHANNELS 6 Xposition Yposition Zposition Zrotation Xrotation Yrotation
                  }
                }
              }
            }
            JOINT RightHandPinky1
            {
            OFFSET -9.350 0.660 -2.720
            CHANNELS 6 Xposition Yposition Zposition Zrotation Xrotation Yrotation
              JOINT RightHandPinky2
              {
              OFFSET -1.630 0.000 0.000
              CHANNELS 6 Xposition Yposition Zposition Zrotation Xrotation Yrotation
                JOINT RightHandPinky3
                {
                OFFSET -1.710 0.000 0.000
                CHANNELS 6 Xposition Yposition Zposition Zrotation Xrotation Yrotation
                  JOINT RightHandPinky4
                  {
                  OFFSET -1.800 0.000 0.000
                  CHANNELS 6 Xposition Yposition Zposition Zrotation Xrotation Yrotation
                  }
                }
              }
            }
          }
        }
      }
    }
    JOINT Neck
    {
      OFFSET -0.000 32.888 0.000
      CHANNELS 6 Xposition Yposition Zposition Zrotation Xrotation Yrotation
      JOINT Head
      {
        OFFSET -0.000 19.796 -0.000
        CHANNELS 6 Xposition Yposition Zposition Zrotation Xrotation Yrotation
        End Site
        {
          OFFSET -0.000 0.079 -0.000
        }
      }
    }
  }
}
MOTION
Frames:	6
Frame Time:	0.0333333
-17.2105 29.783 -252.378 0.0122622 9.79502 -2.62982 6.57963 -6.57222 2.41771 0.554847 -23.0756 -2.29196 -2.98023e-06 -54.4607 4.76837e-05 -4.25495 23.5022 9.31006e-07 2.98023e-06 -40.1037 -2.38419e-05 6.70129 -8.35461 4.77506 -6.43469 -7.21693 1.5497 0.807795 -9.54743 -4.09609 1.19209e-05 -55.1024 -2.38419e-05 3.8024 9.84895 -0.651332 0 -38.3391 4.76837e-05 1.5021 -14.9156 1.15523 2.98023e-06 5.50935 -5.50931 0.919518 -7.06307 -0.495277 -5.96046e-06 32.8886 -2.38419e-05 -30.5274 1.10991e-05 3.44017 17.8926 8.9407e-06 0 -35.8618 35.9185 0.903188 21.2012 0 0 -5.52099e-05 -1.22176e-05 -95.3272 25.4923 2.38419e-05 0 -17.5028 -0.121436 -3.99007 0.0062 0.0497 0.0339 0 0 0 0 0.0215 0 0 0 0 0 0.022 0 0 0 0 0 0.017 0 0 0 0 -0.0068 0.0873 0.0207 0 0 0 0 0.0267 0 0 0 0 0 0.0213 0 0 0 0 0 0.018 0 0 0 0 -0.0067 0.0922 0.0055 0 0 0 0 0.0266 0 0 0 0 0 0.0228 0 0 0 0 0 0.015 0 0 0 0 -0.0067 0.0925 -0.0113 0 0 0 0 0.0247 0 0 0 0 0 0.0221 0 0 0 0 0 0.018 0 0 0 0 -0.0066 0.0935 -0.0272 0 0 0 0 0.0163 0 0 0 0 0 0.0171 0 0 0 0 0 0.018 0 0 0 0 -5.96046e-06 32.8886 -2.38419e-05 26.507 -3.20165e-06 -3.37086 -18.2601 1.78814e-05 0 21.5051 40.6432 24.0355 -21.6537 -3.57628e-05 -9.53674e-05 0.00245886 1.53694e-05 90.0797 -23.3071 1.19209e-05 1.19209e-05 11.7522 0.103331 2.77857 -0.0062 0.0497 0.0339 13.005 0 0 0 0.0215 0 0 -13.005 0 0 0.022 0 0 -13.005 0 0 0.017 0 0 0 0 0.0068 0.0873 0.0207 13.005 0 0 0 0.0267 0 23.12 0 0 0 0.0213 0 26.01 0 0 0 0.018 0 0 0 0 0.0067 0.0922 0.0055 13.005 0 0 0 0.0266 0 23.12 0 0 0 0.0228 0 26.01 0 0 0 0.015 0 0 0 0 0.0067 0.0925 -0.0113 13.005 0 0 0 0.0247 0 23.12 0 0 0 0.0221 0 26.01 0 0 0 0.018 0 0 0 0 0.0066 0.0935 -0.0272 13.005 0 0 0 0.0163 0 23.12 0 0 0 0.0171 0 26.01 0 0 0 0.018 0 0 0 0 -5.96046e-06 32.8886 -2.38419e-05 -0.680746 2.04979 0.024349 0 19.1703 0 1.00585e-05 -1.06722e-05 4.26887e-07 
-17.4937 29.6934 -251.386 0.065598 9.80179 -2.93055 6.55514 -6.54916 2.48499 0.91425 -24.287 -3.30013 8.9407e-06 -54.6868 2.38419e-05 -4.48108 19.4241 -4.5265e-07 -1.19209e-05 -39.2735 -7.15256e-05 7.34553 -12.7285 5.5659 -6.44559 -7.25042 1.47605 0.60808 -8.67345 -4.75677 5.96046e-06 -55.6955 -4.76837e-05 4.2041 9.14393 -0.669266 1.19209e-05 -37.6939 0 -0.377101 -13.2193 -0.0826322 -8.9407e-06 5.5 -5.49996 0.68207 -7.09473 -0.207552 8.9407e-06 32.8886 2.38419e-05 -30.3773 1.15259e-05 3.42143 17.7651 1.49012e-05 2.38419e-05 -36.9674 33.7046 5.31085 20.977 1.19209e-05 -2.38419e-05 -6.46766e-07 -1.36921e-05 -95.4089 24.9881 1.19209e-05 -1.49012e-06 -22.0895 -0.0660643 -7.63266 0.0062 0.0497 0.0339 0 0 0 0 0.0215 0 0 0 0 0 0.022 0 0 0 0 0 0.017 0 0 0 0 -0.0068 0.0873 0.0207 0 0 0 0 0.0267 0 0 0 0 0 0.0213 0 0 0 0 0 0.018 0 0 0 0 -0.0067 0.0922 0.0055 0 0 0 0 0.0266 0 0 0 0 0 0.0228 0 0 0 0 0 0.015 0 0 0 0 -0.0067 0.0925 -0.0113 0 0 0 0 0.0247 0 0 0 0 0 0.0221 0 0 0 0 0 0.018 0 0 0 0 -0.0066 0.0935 -0.0272 0 0 0 0 0.0163 0 0 0 0 0 0.0171 0 0 0 0 0 0.018 0 0 0 0 8.9407e-06 32.8886 2.38419e-05 27.1586 -2.98821e-06 -3.30248 -18.4042 1.19209e-05 -2.38419e-05 20.391 41.1057 28.8238 -22.2034 -1.19209e-05 -4.76837e-05 -0.00744854 -8.54109e-06 90.0788 -23.1979 -2.38419e-05 0 12.5112 0.181748 4.69833 -0.0062 0.0497 0.0339 6.90892 0 0 0 0.0215 0 0 -6.90892 0 0 0.022 0 0 -6.90892 0 0 0.017 0 0 0 0 0.0068 0.0873 0.0207 6.90892 0 0 0 0.0267 0 12.2825 0 0 0 0.0213 0 13.8178 0 0 0 0.018 0 0 0 0 0.0067 0.0922 0.0055 6.90892 0 0 0 0.0266 0 12.2825 0 0 0 0.0228 0 13.8178 0 0 0 0.015 0 0 0 0 0.0067 0.0925 -0.0113 6.90892 0 0 0 0.0247 0 12.2825 0 0 0 0.0221 0 13.8178 0 0 0 0.018 0 0 0 0 0.0066 0.0935 -0.0272 6.90892 0 0 0 0.0163 0 12.2825 0 0 0 0.0171 0 13.8178 0 0 0 0.018 0 0 0 0 8.9407e-06 32.8886 2.38419e-05 -0.256364 1.83124 0.00819294 -2.98023e-06 19.1464 -4.76837e-05 1.00318e-05 -1.02453e-05 -2.13443e-07 
-17.7974 29.5907 -249.951 0.0711092 9.40245 -2.5523 6.52932 -6.52588 2.62609 0.863586 -25.056 -4.99238 0 -54.7805 -4.76837e-05 -4.48035 16.4957 -5.34254e-06 2.98023e-06 -38.8227 -7.15256e-05 8.06669 -17.3886 6.53716 -6.45387 -7.29804 1.31795 -0.0330438 -7.44747 -6.14634 1.19209e-05 -55.6556 2.38419e-05 5.11104 9.27134 -0.825574 -1.19209e-05 -37.9877 0 -4.03963 -10.1529 -2.27581 -2.98023e-06 5.49852 -5.49853 0.4083 -6.94722 0.174608 0 32.8886 0 -30.0046 1.23797e-05 3.32035 17.7056 2.08616e-05 0 -37.2841 32.5708 11.2501 20.4017 -1.19209e-05 7.15256e-05 -1.3949e-05 -5.34475e-06 -96.182 25.351 2.38419e-05 4.84288e-06 -29.522 0.160272 -14.1734 0.0062 0.0497 0.0339 0 0 0 0 0.0215 0 0 0 0 0 0.022 0 0 0 0 0 0.017 0 0 0 0 -0.0068 0.0873 0.0207 0 0 0 0 0.0267 0 0 0 0 0 0.0213 0 0 0 0 0 0.018 0 0 0 0 -0.0067 0.0922 0.0055 0 0 0 0 0.0266 0 0 0 0 0 0.0228 0 0 0 0 0 0.015 0 0 0 0 -0.0067 0.0925 -0.0113 0 0 0 0 0.0247 0 0 0 0 0 0.0221 0 0 0 0 0 0.018 0 0 0 0 -0.0066 0.0935 -0.0272 0 0 0 0 0.0163 0 0 0 0 0 0.0171 0 0 0 0 0 0.018 0 0 0 0 0 32.8886 0 28.2151 -2.56132e-06 -3.18815 -18.439 -5.96046e-06 -4.76837e-05 20.2787 41.833 31.0083 -22.5672 2.38419e-05 9.53674e-05 0.00425869 3.41503e-06 89.9081 -21.6896 -2.38419e-05 -5.96046e-06 12.2482 0.494909 10.3723 -0.0062 0.0497 0.0339 2.34904 0 0 0 0.0215 0 0 -2.34904 0 0 0.022 0 0 -2.34904 0 0 0.017 0 0 0 0 0.0068 0.0873 0.0207 2.34904 0 0 0 0.0267 0 4.17607 0 0 0 0.0213 0 4.69808 0 0 0 0.018 0 0 0 0 0.0067 0.0922 0.0055 2.34904 0 0 0 0.0266 0 4.17607 0 0 0 0.0228 0 4.69808 0 0 0 0.015 0 0 0 0 0.0067 0.0925 -0.0113 2.34904 0 0 0 0.0247 0 4.17607 0 0 0 0.0221 0 4.69808 0 0 0 0.018 0 0 0 0 0.0066 0.0935 -0.0272 2.34904 0 0 0 0.0163 0 4.17607 0 0 0 0.0171 0 4.69808 0 0 0 0.018 0 0 0 0 0 32.8886 0 -0.0642099 2.02656 0.00227096 2.98023e-06 19.1106 2.38419e-05 1.00318e-05 -1.02453e-05 0 
-17.9317 28.9959 -248.594 0.331696 8.89752 -2.42682 6.5133 -6.42627 2.45574 0.484786 -24.9791 -4.37913 8.9407e-06 -54.0799 2.38419e-05 -4.02662 15.2774 0 -2.98023e-06 -38.9733 2.38419e-05 8.21231 -19.8604 6.90063 -6.47558 -7.23627 1.35572 -0.655456 -6.34732 -5.27934 -1.19209e-05 -54.9788 0 6.10531 9.51853 -1.01335 -5.96046e-06 -38.2737 7.15256e-05 -7.76686 -7.79214 -4.24051 -5.96046e-06 5.5854 -5.58543 0.18017 -7.14092 0.289437 5.96046e-06 32.8886 -4.76837e-05 -29.0249 1.28066e-05 2.7914 17.4944 -8.9407e-06 4.76837e-05 -38.738 31.8566 17.386 19.9286 -1.19209e-05 2.38419e-05 -2.16521e-07 -3.10082e-06 -97.9886 25.6426 0 1.49012e-06 -33.9171 0.402233 -18.5516 0.0062 0.0497 0.0339 0 0 0 0 0.0215 0 0 0 0 0 0.022 0 0 0 0 0 0.017 0 0 0 0 -0.0068 0.0873 0.0207 0 0 0 0 0.0267 0 0 0 0 0 0.0213 0 0 0 0 0 0.018 0 0 0 0 -0.0067 0.0922 0.0055 0 0 0 0 0.0266 0 0 0 0 0 0.0228 0 0 0 0 0 0.015 0 0 0 0 -0.0067 0.0925 -0.0113 0 0 0 0 0.0247 0 0 0 0 0 0.0221 0 0 0 0 0 0.018 0 0 0 0 -0.0066 0.0935 -0.0272 0 0 0 0 0.0163 0 0 0 0 0 0.0171 0 0 0 0 0 0.018 0 0 0 0 5.96046e-06 32.8886 -4.76837e-05 28.0861 -3.20165e-06 -2.68029 -18.2192 5.96046e-06 9.53674e-05 21.596 43.1498 30.5209 -22.5851 -4.76837e-05 -4.76837e-05 -0.000259663 1.20196e-05 91.1048 -20.8589 1.19209e-05 1.19209e-05 10.6936 0.509006 12.7461 -0.0062 0.0497 0.0339 0 0 0 0 0.0215 0 0 0 0 0 0.022 0 0 0 0 0 0.017 0 0 0 0 0.0068 0.0873 0.0207 0 0 0 0 0.0267 0 0 0 0 0 0.0213 0 0 0 0 0 0.018 0 0 0 0 0.0067 0.0922 0.0055 0 0 0 0 0.0266 0 0 0 0 0 0.0228 0 0 0 0 0 0.015 0 0 0 0 0.0067 0.0925 -0.0113 0 0 0 0 0.0247 0 0 0 0 0 0.0221 0 0 0 0 0 0.018 0 0 0 0 0.0066 0.0935 -0.0272 0 0 0 0 0.0163 0 0 0 0 0 0.0171 0 0 0 0 0 0.018 0 0 0 0 5.96046e-06 32.8886 -4.76837e-05 -0.208577 2.59085 0.00942868 -2.98023e-06 19.4434 2.38419e-05 9.99182e-06 -1.02453e-05 -6.4033e-07 
-18.0109 28.5023 -247.428 0.563336 8.57029 -2.26571 6.5264 -6.38382 2.37443 0.0984498 -25.1821 -3.81597 2.98023e-06 -53.4227 -7.15256e-05 -3.73808 15.0149 0 2.98023e-06 -39.1789 0 8.13822 -21.9346 7.05793 -6.49898 -7.19331 1.43807 -1.00263 -6.61465 -4.99276 -5.96046e-06 -54.1235 2.38419e-05 5.71758 12.7598 0 -1.78814e-05 -38.9748 -7.15256e-05 -10.104 -6.40123 -5.59927 0 5.63147 -5.63145 0.0422873 -7.17073 0.510842 -2.98023e-06 32.8886 0 -28.1552 1.13125e-05 2.6523 17.3813 1.78814e-05 -2.38419e-05 -39.093 31.2301 20.798 19.6863 1.19209e-05 -2.38419e-05 9.87503e-05 -6.06413e-06 -99.7052 26 0 1.04308e-05 -38.5134 0.629949 -22.1622 0.0062 0.0497 0.0339 0 0 0 0 0.0215 0 0 0 0 0 0.022 0 0 0 0 0 0.017 0 0 0 0 -0.0068 0.0873 0.0207 0 0 0 0 0.0267 0 0 0 0 0 0.0213 0 0 0 0 0 0.018 0 0 0 0 -0.0067 0.0922 0.0055 0 0 0 0 0.0266 0 0 0 0 0 0.0228 0 0 0 0 0 0.015 0 0 0 0 -0.0067 0.0925 -0.0113 0 0 0 0 0.0247 0 0 0 0 0 0.0221 0 0 0 0 0 0.018 0 0 0 0 -0.0066 0.0935 -0.0272 0 0 0 0 0.0163 0 0 0 0 0 0.0171 0 0 0 0 0 0.018 0 0 0 0 -2.98023e-06 32.8886 0 28.182 -3.70858e-06 -2.55141 -18.0682 -1.19209e-05 0 23.135 43.5064 29.9801 -22.519 -1.19209e-05 -2.38419e-05 0.000409632 1.20456e-05 91.7052 -20.2172 4.76837e-05 0 9.62755 0.427911 13.413 -0.0062 0.0497 0.0339 0 0 0 0 0.0215 0 0 0 0 0 0.022 0 0 0 0 0 0.017 0 0 0 0 0.0068 0.0873 0.0207 0 0 0 0 0.0267 0 0 0 0 0 0.0213 0 0 0 0 0 0.018 0 0 0 0 0.0067 0.0922 0.0055 0 0 0 0 0.0266 0 0 0 0 0 0.0228 0 0 0 0 0 0.015 0 0 0 0 0.0067 0.0925 -0.0113 0 0 0 0 0.0247 0 0 0 0 0 0.0221 0 0 0 0 0 0.018 0 0 0 0 0.0066 0.0935 -0.0272 0 0 0 0 0.0163 0 0 0 0 0 0.0171 0 0 0 0 0 0.018 0 0 0 0 -2.98023e-06 32.8886 0 -0.472014 2.56615 0.0211337 0 19.6344 -7.15256e-05 1.01252e-05 -1.10991e-05 -2.13443e-07 
-18.023 27.934 -246.19 0.851093 8.06391 -2.74548 6.55122 -6.37491 2.30203 -0.069193 -24.8875 -3.16179 5.96046e-06 -52.6545 -7.15256e-05 -3.74241 14.8744 -8.83375e-07 -2.98023e-06 -39.3465 2.38419e-05 7.91912 -23.7299 7.06129 -6.54011 -7.14827 1.50807 -1.35324 -6.32439 -4.2395 0 -53.3773 0 5.29187 15.0412 2.65219e-06 0 -39.8121 -4.76837e-05 -11.982 -4.99269 -6.64084 5.96046e-06 5.68699 -5.68695 -0.0356744 -7.22976 0.475276 0 32.8886 -9.53674e-05 -27.8767 1.32335e-05 2.08628 17.2043 5.96046e-06 7.15256e-05 -39.2476 29.6629 25.4135 19.5747 -1.19209e-05 4.76837e-05 -1.28755e-05 7.4732e-06 -101.99 26.3158 0 0 -43.4279 0.907074 -25.3223 0.0062 0.0497 0.0339 0 0 0 0 0.0215 0 0 0 0 0 0.022 0 0 0 0 0 0.017 0 0 0 0 -0.0068 0.0873 0.0207 0 0 0 0 0.0267 0 0 0 0 0 0.0213 0 0 0 0 0 0.018 0 0 0 0 -0.0067 0.0922 0.0055 0 0 0 0 0.0266 0 0 0 0 0 0.0228 0 0 0 0 0 0.015 0 0 0 0 -0.0067 0.0925 -0.0113 0 0 0 0 0.0247 0 0 0 0 0 0.0221 0 0 0 0 0 0.018 0 0 0 0 -0.0066 0.0935 -0.0272 0 0 0 0 0.0163 0 0 0 0 0 0.0171 0 0 0 0 0 0.018 0 0 0 0 0 32.8886 -9.53674e-05 27.8351 -1.89431e-06 -1.99533 -17.9882 -2.98023e-05 2.38419e-05 25.7372 44.2728 28.7339 -22.5236 0 3.57628e-05 -0.000396225 8.46648e-06 90.9966 -20.2705 -1.19209e-05 1.19209e-05 9.49212 0.393978 14.7253 -0.0062 0.0497 0.0339 0 0 0 0 0.0215 0 0 0 0 0 0.022 0 0 0 0 0 0.017 0 0 0 0 0.0068 0.0873 0.0207 0 0 0 0 0.0267 0 0 0 0 0 0.0213 0 0 0 0 0 0.018 0 0 0 0 0.0067 0.0922 0.0055 0 0 0 0 0.0266 0 0 0 0 0 0.0228 0 0 0 0 0 0.015 0 0 0 0 0.0067 0.0925 -0.0113 0 0 0 0 0.0247 0 0 0 0 0 0.0221 0 0 0 0 0 0.018 0 0 0 0 0.0066 0.0935 -0.0272 0 0 0 0 0.0163 0 0 0 0 0 0.0171 0 0 0 0 0 0.018 0 0 0 0 0 32.8886 -9.53674e-05 -0.534663 2.71028 0.0252831 -2.98023e-06 19.905 -2.38419e-05 1.00585e-05 -9.39151e-06 0 
